# Blender 4.5.4 LTS
# www.blender.org
mtllib House2.mtl
o House2
v -1.000000 -1.000000 1.000000
v 0.929515 1.078059 -0.316505
v -1.000000 1.000000 1.000000
v -1.000000 -1.000000 -1.000000
v 0.929515 1.016312 -0.310424
v -1.000000 1.000000 -1.000000
v 1.000000 -1.000000 1.000000
v 0.929515 0.956938 -0.292413
v 1.000000 1.000000 1.000000
v 1.000000 -1.000000 -1.000000
v 0.929515 0.902218 -0.263165
v 1.000000 1.000000 -1.000000
v 0.929515 0.854256 -0.223803
v -1.000000 -1.000000 -0.600000
v -1.000000 -1.000000 -0.200000
v -1.000000 -1.000000 0.200000
v 0.929515 0.814894 -0.175841
v -1.000000 -1.000000 0.600000
v -1.000000 1.000000 0.600000
v 0.929515 0.785646 -0.121121
v -1.000000 1.000000 0.200000
v 0.929515 0.767635 -0.061747
v -1.000000 1.000000 -0.200000
v -1.000000 1.000000 -0.600000
v 0.929515 0.761554 0.000000
v 1.000000 -1.000000 0.600000
v 1.000000 -1.000000 0.200000
v 0.929515 0.767635 0.061747
v 1.000000 -1.000000 -0.200000
v 1.000000 -1.000000 -0.600000
v 0.929515 0.785646 0.121121
v 1.000000 1.000000 -0.600000
v 0.929515 0.814894 0.175841
v 1.000000 1.000000 0.600000
v 0.929515 0.854256 0.223803
v -1.000000 1.314023 -0.600000
v -1.000000 1.314023 -1.000000
v 1.000000 1.314023 -1.000000
v 0.929515 0.902218 0.263165
v 1.000000 1.314023 0.600000
v 1.000000 1.314023 1.000000
v 0.929515 0.956938 0.292413
v -1.000000 1.314023 1.000000
v -1.000000 1.314023 0.600000
v 0.929515 1.016312 0.310424
v -1.000000 1.314023 0.200000
v 0.929515 1.078059 0.316505
v -1.000000 1.314023 -0.200000
v 1.000000 1.314023 -0.600000
v 0.929515 1.139806 0.310424
v 0.929515 1.199180 0.292413
v -1.000000 1.670894 0.600000
v -1.000000 1.670894 0.200000
v 0.929515 1.253900 0.263165
v -1.000000 1.670894 -0.200000
v -1.000000 1.670894 -0.600000
v 0.929515 1.301862 0.223803
v 1.000000 1.670894 -0.600000
v 1.000000 1.670894 -0.200000
v 1.000000 1.670894 0.200000
v 0.929515 1.341223 0.175841
v 1.000000 1.670894 0.600000
v 0.929515 1.370472 0.121121
v -1.000000 2.034034 0.200000
v -1.000000 2.034034 -0.200000
v 0.929515 1.388483 0.061747
v 1.000000 2.034034 -0.200000
v 1.000000 2.034034 0.200000
v 0.929515 1.394564 0.000000
v -1.000000 1.393699 -0.600000
v -1.000000 1.393699 -1.000000
v 1.000000 1.393699 -1.000000
v 0.929515 1.388483 -0.061747
v 1.000000 1.393699 0.600000
v 1.000000 1.393699 1.000000
v 0.929515 1.370472 -0.121121
v -1.000000 1.393699 1.000000
v -1.000000 1.393699 0.600000
v 0.929515 1.341223 -0.175841
v 1.000000 1.393699 -0.600000
v -1.000000 1.750570 0.600000
v 0.929515 1.301862 -0.223803
v -1.000000 1.750570 0.200000
v 0.929515 1.253900 -0.263165
v -1.000000 1.750570 -0.200000
v -1.000000 1.750570 -0.600000
v 1.000000 1.750570 -0.600000
v 0.929515 1.199180 -0.292413
v 1.000000 1.750570 -0.200000
v 0.929515 1.139806 -0.310424
v 1.000000 1.750570 0.200000
v 1.000000 1.750570 0.600000
v -1.000000 2.113710 0.200000
v -1.000000 2.113710 -0.200000
v 1.000000 2.113710 -0.200000
v 1.000000 2.113710 0.200000
v -1.000000 1.314023 -1.049260
v 1.000000 1.314023 -1.049260
v 1.000000 1.314023 1.049260
v -1.000000 1.314023 1.049260
v -1.000000 1.670894 -0.629556
v 1.000000 1.670894 -0.629556
v -1.000000 1.670894 0.629556
v 1.000000 1.670894 0.629556
v -1.000000 2.034034 -0.209852
v 1.000000 2.034034 -0.209852
v -1.000000 2.034034 0.209852
v 1.000000 2.034034 0.209852
v -1.000000 1.393699 -1.049260
v 1.000000 1.393699 -1.049260
v 1.000000 1.393699 1.049260
v -1.000000 1.393699 1.049260
v -1.000000 1.750570 -0.629556
v 1.000000 1.750570 -0.629556
v -1.000000 1.750570 0.629556
v 1.000000 1.750570 0.629556
v -1.000000 2.113710 -0.209852
v 1.000000 2.113710 -0.209852
v -1.000000 2.113710 0.209852
v 1.000000 2.113710 0.209852
v -1.134796 1.314023 -0.600000
v -1.134796 1.314023 -1.000000
v 1.134796 1.314023 0.600000
v 1.134796 1.314023 1.000000
v -1.134796 1.314023 1.000000
v -1.134796 1.314023 0.600000
v 1.134796 1.314023 -1.000000
v 1.134796 1.314023 -0.600000
v -1.134796 1.670894 0.600000
v -1.134796 1.670894 0.200000
v -1.134796 1.670894 -0.200000
v -1.134796 1.670894 -0.600000
v 1.134796 1.670894 -0.600000
v 1.134796 1.670894 -0.200000
v 1.134796 1.670894 0.200000
v 1.134796 1.670894 0.600000
v -1.134796 2.034034 0.200000
v -1.134796 2.034034 -0.200000
v 1.134796 2.034034 -0.200000
v 1.134796 2.034034 0.200000
v -1.134796 1.393699 -0.600000
v -1.134796 1.393699 -1.000000
v 1.134796 1.393699 0.600000
v 1.134796 1.393699 1.000000
v -1.134796 1.393699 1.000000
v -1.134796 1.393699 0.600000
v 1.134796 1.393699 -1.000000
v 1.134796 1.393699 -0.600000
v -1.134796 1.750570 0.600000
v -1.134796 1.750570 0.200000
v -1.134796 1.750570 -0.200000
v -1.134796 1.750570 -0.600000
v 1.134796 1.750570 -0.600000
v 1.134796 1.750570 -0.200000
v 1.134796 1.750570 0.200000
v 1.134796 1.750570 0.600000
v -1.134796 2.113710 0.200000
v -1.134796 2.113710 -0.200000
v 1.134796 2.113710 -0.200000
v 1.134796 2.113710 0.200000
v 1.134796 1.750570 0.629556
v 1.134796 1.670894 0.629556
v -1.134796 1.393699 -1.049260
v -1.134796 1.314023 -1.049260
v -1.134796 1.670894 -0.629556
v -1.134796 1.750570 -0.629556
v 1.134796 1.750570 -0.629556
v 1.134796 1.670894 -0.629556
v 1.134796 1.314023 -1.049260
v 1.134796 1.393699 -1.049260
v -1.134796 1.670894 0.629556
v -1.134796 1.750570 0.629556
v 1.134796 1.393699 1.049260
v 1.134796 1.314023 1.049260
v -1.134796 2.034034 0.209852
v -1.134796 2.113710 0.209852
v -1.134796 2.113710 -0.209852
v -1.134796 2.034034 -0.209852
v -1.134796 1.393699 1.049260
v -1.134796 1.314023 1.049260
v 1.134796 2.034034 -0.209852
v 1.134796 2.113710 -0.209852
v 1.134796 2.113710 0.209852
v 1.134796 2.034034 0.209852
v -0.741967 1.393699 1.049260
v -0.741967 1.314023 1.049260
v -0.741967 1.314023 1.000000
v -0.741967 1.393699 1.000000
v -0.741967 1.000000 1.000000
v -0.741967 1.393699 0.948393
v -0.741967 1.670894 0.629556
v -0.741967 1.750570 0.629556
v -0.741967 1.750570 0.548393
v -0.741967 1.750570 0.600000
v -0.741967 1.670894 0.600000
v -0.741967 1.314023 0.600000
v -0.741967 1.393699 0.600000
v -0.741967 2.034034 0.209852
v -0.741967 2.113710 0.209852
v -0.741967 1.750570 0.200000
v -0.741967 2.034034 0.200000
v -0.741967 2.113710 0.200000
v -0.741967 2.034034 -0.209852
v -0.741967 2.113710 -0.209852
v -0.741967 1.750570 -0.200000
v -0.741967 1.750570 -0.251607
v -0.741967 2.034034 -0.200000
v -0.741967 2.113710 -0.200000
v -0.741967 1.670894 -0.200000
v -0.741967 1.670894 0.200000
v -0.741967 0.900915 1.000000
v -0.741967 1.314023 -0.600000
v -0.741967 1.393699 -0.600000
v -0.741967 1.670894 -0.629556
v -0.741967 1.670894 -0.600000
v -0.741967 1.750570 -0.600000
v -0.741967 1.314023 -1.000000
v -0.741967 1.393699 -0.651607
v -0.741967 1.393699 -1.000000
v -0.741967 1.393699 -1.049260
v -0.741967 1.314023 -1.049260
v -0.741967 1.000000 -1.000000
v -0.741967 0.900915 -1.000000
v -0.741967 1.750570 -0.629556
v 0.741967 2.034034 0.209852
v 0.741967 2.113710 0.209852
v 0.741967 1.750570 0.251607
v 0.741967 1.670894 0.200000
v 0.741967 1.750570 0.200000
v 0.741967 2.113710 0.200000
v 0.741967 2.034034 0.200000
v 0.741967 2.034034 -0.209852
v 0.741967 1.750570 -0.200000
v 0.741967 2.034034 -0.200000
v 0.741967 2.113710 -0.200000
v 0.741967 1.670894 -0.200000
v 0.741967 1.750570 -0.600000
v 0.741967 1.670894 -0.600000
v 0.741967 1.750570 -0.629556
v 0.741967 1.670894 -0.629556
v 0.741967 1.393699 -0.600000
v 0.741967 1.750570 -0.548393
v 0.741967 2.113710 -0.209852
v 0.741967 1.314023 -1.000000
v 0.741967 1.393699 -1.000000
v 0.741967 1.393699 -0.948393
v 0.741967 1.393699 -1.049260
v 0.741967 1.314023 -1.049260
v 0.741967 1.000000 -1.000000
v 0.741967 1.314023 -0.600000
v 0.741967 1.393699 1.049260
v 0.741967 1.314023 1.049260
v 0.741967 1.393699 1.000000
v 0.741967 1.314023 1.000000
v 0.741967 1.393699 0.651607
v 0.741967 1.670894 0.629556
v 0.741967 0.900915 1.000000
v 0.741967 1.000000 1.000000
v 0.741967 1.750570 0.629556
v 0.741967 0.900915 -1.000000
v 0.741967 1.670894 0.600000
v 0.741967 1.750570 0.600000
v 0.741967 1.314023 0.600000
v 0.741967 1.393699 0.600000
v -0.741967 2.113248 -0.008091
v 0.741967 2.113248 -0.008091
v 1.000000 0.902218 -0.263165
v 1.000000 0.956938 -0.292413
v 1.000000 1.000000 -0.305476
v 1.000000 0.854256 -0.223803
v 1.000000 0.834721 -0.200000
v 1.000000 0.767635 0.061747
v 1.000000 0.785646 0.121121
v 1.000000 0.767635 -0.061747
v 1.000000 0.814894 -0.175841
v 1.000000 0.785646 -0.121121
v 1.000000 0.761554 0.000000
v 1.000000 0.814894 0.175841
v 1.000000 0.834721 0.200000
v 1.000000 0.956938 0.292413
v 1.000000 1.000000 0.305476
v 1.000000 0.854256 0.223803
v 1.000000 0.902218 0.263165
v 1.000000 1.321397 -0.200000
v 1.000000 1.314023 -0.208985
v 1.000000 1.078059 0.316505
v 1.000000 1.016312 0.310424
v 1.000000 1.139806 0.310424
v 1.000000 1.199180 0.292413
v 1.000000 1.253900 0.263165
v 1.000000 1.301862 0.223803
v 1.000000 1.314023 0.208985
v 1.000000 1.016312 -0.310424
v 1.000000 1.078059 -0.316505
v 1.000000 1.253900 -0.263165
v 1.000000 1.301862 -0.223803
v 1.000000 1.199180 -0.292413
v 1.000000 1.139806 -0.310424
v 1.000000 1.370472 0.121121
v 1.000000 1.394564 0.000000
v 1.000000 1.388483 0.061747
v 1.000000 1.370472 -0.121121
v 1.000000 1.341223 -0.175841
v 1.000000 1.388483 -0.061747
v 1.000000 1.341223 0.175841
v 1.000000 1.321397 0.200000
v 0.990809 1.403014 -0.029302
v 0.990809 0.742456 -0.029302
v 0.990809 1.403014 0.029302
v 0.990809 0.742456 0.029302
v 0.932204 1.403014 -0.029302
v 0.932204 0.742456 -0.029302
v 0.932204 1.403014 0.029302
v 0.932204 0.742456 0.029302
v 0.990809 1.102038 0.330279
v 0.990809 1.102038 -0.330279
v 0.990809 1.043433 0.330279
v 0.990809 1.043433 -0.330279
v 0.932204 1.102038 0.330279
v 0.932204 1.102038 -0.330279
v 0.932204 1.043433 0.330279
v 0.932204 1.043433 -0.330279
v 1.063168 -0.357142 -0.383014
v 1.063168 -0.360284 -0.391511
v 1.065754 -0.360284 -0.383014
v 1.063168 -0.416826 -0.391511
v 1.063168 -0.419967 -0.383014
v 1.065754 -0.416826 -0.383014
v 1.063168 -0.357142 -0.230063
v 1.065754 -0.360284 -0.230063
v 1.063168 -0.360284 -0.221566
v 1.063168 -0.419967 -0.230063
v 1.063168 -0.416826 -0.221566
v 1.065754 -0.416826 -0.230063
v 1.016628 -0.357142 -0.383014
v 1.014043 -0.360284 -0.383014
v 1.016628 -0.360284 -0.391511
v 1.016628 -0.419967 -0.383014
v 1.016628 -0.416826 -0.391511
v 1.014043 -0.416826 -0.383014
v 1.016628 -0.357142 -0.230063
v 1.016628 -0.360284 -0.221566
v 1.014043 -0.360284 -0.230063
v 1.016628 -0.419967 -0.230063
v 1.014043 -0.416826 -0.230063
v 1.016628 -0.416826 -0.221566
v 0.890896 -0.999294 0.427442
v 1.020276 -0.140048 0.156033
v 0.890896 0.506760 0.427442
v 1.020276 -0.116196 0.174251
v 0.890896 -0.999294 -0.435485
v 1.006219 -0.116196 0.156033
v 0.890896 0.506760 -0.435485
v 1.020276 0.313136 0.174251
v 1.024511 -0.999294 0.427442
v 1.020276 0.336988 0.156033
v 1.024511 0.506760 0.427442
v 1.006219 0.313136 0.156033
v 1.024511 -0.999294 -0.435485
v 1.020276 -0.140048 -0.171890
v 1.024511 0.506760 -0.435485
v 1.006219 -0.116196 -0.171890
v 1.020276 -0.116196 -0.190108
v 1.020276 0.336988 -0.171890
v 1.020276 0.313136 -0.190108
v 1.006219 0.313136 -0.171890
v 1.020276 -0.760195 0.156033
v 1.020276 -0.736343 0.174251
v 1.006219 -0.736343 0.156033
v 1.020276 -0.307011 0.174251
v 1.020276 -0.283159 0.156033
v 1.006219 -0.307011 0.156033
v 1.020276 -0.760195 -0.171890
v 1.006219 -0.736343 -0.171890
v 1.020276 -0.736343 -0.190108
v 1.020276 -0.283159 -0.171890
v 1.020276 -0.307011 -0.190108
v 1.006219 -0.307011 -0.171890
v 1.024511 0.313136 0.174251
v 1.024511 -0.283159 -0.171890
v 1.024511 0.336988 0.156033
v 1.024511 -0.140048 -0.171890
v 1.024511 -0.307011 -0.190108
v 1.024511 -0.116196 -0.190108
v 1.024511 0.313136 -0.190108
v 1.024511 0.336988 -0.171890
v 1.024511 -0.736343 0.174251
v 1.024511 -0.307011 0.174251
v 1.024511 -0.116196 0.174251
v 1.024511 -0.760195 0.156033
v 1.024511 -0.140048 0.156033
v 1.024511 -0.283159 0.156033
v 1.024511 -0.760195 -0.171890
v 1.024511 -0.736343 -0.190108
vn -1.0000 -0.0000 -0.0000
vn -0.0000 -0.0000 -1.0000
vn 1.0000 -0.0000 -0.0000
vn -0.0000 -0.0000 1.0000
vn -0.0000 -1.0000 -0.0000
vn -0.0000 1.0000 -0.0000
vn -0.0000 -0.6332 0.7740
vn -0.0000 -0.6394 -0.7689
vn -0.0000 0.0980 0.9952
vn -0.0000 0.2903 0.9569
vn -0.0000 0.4714 0.8819
vn -0.0000 0.6344 0.7730
vn -0.0000 0.7730 0.6344
vn -0.0000 0.8819 0.4714
vn -0.0000 0.9569 0.2903
vn -0.0000 0.9952 0.0980
vn -0.0000 0.9952 -0.0980
vn -0.0000 0.9569 -0.2903
vn -0.0000 0.8819 -0.4714
vn -0.0000 0.7730 -0.6344
vn -0.0000 0.6344 -0.7730
vn -0.0000 0.4714 -0.8819
vn -0.0000 0.2903 -0.9569
vn -0.0000 0.0980 -0.9952
vn -0.0000 -0.0980 -0.9952
vn -0.0000 -0.2903 -0.9569
vn -0.0000 -0.4714 -0.8819
vn -0.0000 -0.6344 -0.7730
vn -0.0000 -0.7730 -0.6344
vn -0.0000 -0.8819 -0.4714
vn -0.0000 -0.9569 -0.2903
vn -0.0000 -0.9952 -0.0980
vn -0.0000 -0.9952 0.0980
vn -0.0000 -0.9569 0.2903
vn -0.0000 -0.8819 0.4714
vn -0.0000 -0.7730 0.6344
vn -0.0000 -0.6344 0.7730
vn -0.0000 -0.4714 0.8819
vn -0.0000 -0.2903 0.9569
vn -0.0000 -0.0980 0.9952
vn -0.7516 -0.6187 0.2287
vn -0.7516 0.6187 0.2287
vn -0.7516 -0.6187 -0.2287
vn -0.7516 0.6187 -0.2287
vn 0.7516 -0.6187 0.2287
vn 0.7516 0.6187 0.2287
vn 0.7516 -0.6187 -0.2287
vn 0.7516 0.6187 -0.2287
vn -0.7721 -0.6355 -0.0000
vn -0.9567 -0.0000 0.2911
vn -0.7721 0.6355 -0.0000
vn -0.9567 -0.0000 -0.2911
vn -0.0000 -0.9380 -0.3467
vn -0.0000 0.9380 -0.3467
vn 0.9567 -0.0000 -0.2911
vn 0.7721 -0.6355 -0.0000
vn 0.7721 0.6355 -0.0000
vn 0.9567 -0.0000 0.2911
vn -0.0000 -0.9380 0.3467
vn -0.0000 0.9380 0.3467
vn 0.7175 0.4228 -0.5536
vn 0.7175 -0.4228 -0.5536
vn 0.7175 0.4228 0.5536
vn 0.7175 -0.4228 0.5536
vn 0.8615 0.5077 -0.0000
vn 0.7917 -0.0000 -0.6109
vn 0.8615 -0.5077 -0.0000
vn 0.7917 -0.0000 0.6109
vn -0.0000 0.6070 0.7947
vn -0.0000 -0.6070 0.7947
vn -0.0000 0.6070 -0.7947
vn -0.0000 -0.6070 -0.7947
vt 0.375000 0.200000
vt 0.625000 0.200000
vt 0.625000 0.250000
vt 0.375000 0.250000
vt 0.612614 0.467746
vt 0.625000 0.467746
vt 0.625000 0.500000
vt 0.375000 0.500000
vt 0.625000 0.282254
vt 0.612614 0.282254
vt 0.375000 0.700000
vt 0.625000 0.700000
vt 0.625000 0.750000
vt 0.375000 0.750000
vt 0.612614 0.967746
vt 0.625000 0.967746
vt 0.625000 1.000000
vt 0.375000 1.000000
vt 0.625000 0.782254
vt 0.612614 0.782254
vt 0.125000 0.700000
vt 0.125000 0.750000
vt 0.625000 0.050000
vt 0.625000 0.000000
vt 0.625000 0.150000
vt 0.125000 0.500000
vt 0.375000 0.550000
vt 0.125000 0.550000
vt 0.375000 0.600000
vt 0.125000 0.600000
vt 0.375000 0.650000
vt 0.125000 0.650000
vt 0.625000 0.550000
vt 0.604340 0.600000
vt 0.625000 0.586816
vt 0.619617 0.588448
vt 0.612777 0.592104
vt 0.606782 0.597025
vt 0.604340 0.650000
vt 0.601862 0.603020
vt 0.598206 0.609860
vt 0.595954 0.617282
vt 0.595194 0.625000
vt 0.595954 0.632718
vt 0.598206 0.640140
vt 0.601862 0.646980
vt 0.625000 0.663184
vt 0.606782 0.652975
vt 0.612777 0.657896
vt 0.619617 0.661552
vt 0.375000 0.000000
vt 0.375000 0.050000
vt 0.625000 0.100000
vt 0.375000 0.100000
vt 0.375000 0.150000
vt 0.875000 0.750000
vt 0.842746 0.550000
vt 0.875000 0.550000
vt 0.657254 0.550000
vt 0.625000 0.200000
vt 0.625000 0.598877
vt 0.625000 0.600000
vt 0.625000 0.651123
vt 0.625000 0.663803
vt 0.625000 0.664563
vt 0.625000 0.663803
vt 0.625000 0.661552
vt 0.625000 0.657896
vt 0.625000 0.652975
vt 0.625000 0.597025
vt 0.625000 0.592104
vt 0.625000 0.588448
vt 0.625000 0.586197
vt 0.625000 0.585437
vt 0.625000 0.586197
vt 0.842746 0.600000
vt 0.875000 0.600000
vt 0.657254 0.600000
vt 0.875000 0.650000
vt 0.657254 0.550000
vt 0.625000 0.650000
vt 0.625000 0.646980
vt 0.625000 0.640140
vt 0.625000 0.632718
vt 0.625000 0.625000
vt 0.625000 0.617282
vt 0.625000 0.609860
vt 0.625000 0.603020
vt 0.657254 0.700000
vt 0.625000 0.700000
vt 0.657254 0.700000
vt 0.842746 0.700000
vt 0.875000 0.700000
vt 0.657254 0.650000
vt 0.842746 0.650000
vt 0.842746 0.743549
vt 0.842746 0.750000
vt 0.657254 0.706451
vt 0.657254 0.750000
vt 0.842746 0.543549
vt 0.842746 0.500000
vt 0.875000 0.500000
vt 0.657254 0.506451
vt 0.657254 0.500000
vt 0.842746 0.593549
vt 0.657254 0.556451
vt 0.842746 0.693549
vt 0.657254 0.656451
vt 0.472538 0.061293
vt 0.472538 0.024301
vt 0.456767 0.061293
vt 0.472538 0.018822
vt 0.472538 0.013591
vt 0.456767 0.013591
vt 0.456767 0.018822
vt 0.394612 0.018822
vt 0.375000 0.018822
vt 0.375000 0.231178
vt 0.394612 0.231178
vt 0.456767 0.231178
vt 0.456767 0.236409
vt 0.472538 0.236409
vt 0.472538 0.231178
vt 0.472538 0.194187
vt 0.456767 0.188707
vt 0.472538 0.188707
vt 0.527403 0.188707
vt 0.527403 0.191845
vt 0.543174 0.191845
vt 0.543174 0.188707
vt 0.543174 0.151715
vt 0.527403 0.146236
vt 0.543174 0.146236
vt 0.599280 0.146236
vt 0.599280 0.147282
vt 0.615051 0.147282
vt 0.615051 0.146236
vt 0.615051 0.103764
vt 0.615051 0.102718
vt 0.599280 0.102718
vt 0.599280 0.103764
vt 0.543174 0.103764
vt 0.527403 0.103764
vt 0.543174 0.066772
vt 0.543174 0.061293
vt 0.543174 0.058155
vt 0.527403 0.058155
vt 0.527403 0.061293
vt 0.527403 0.646236
vt 0.543174 0.651715
vt 0.543174 0.646236
vt 0.456767 0.731178
vt 0.456767 0.736409
vt 0.472538 0.736409
vt 0.472538 0.731178
vt 0.472538 0.694187
vt 0.456767 0.688707
vt 0.472538 0.688707
vt 0.527403 0.688707
vt 0.527403 0.691845
vt 0.543174 0.691845
vt 0.543174 0.688707
vt 0.599280 0.646236
vt 0.599280 0.647282
vt 0.615051 0.647282
vt 0.615051 0.646236
vt 0.615051 0.603764
vt 0.615051 0.602718
vt 0.599280 0.602718
vt 0.599280 0.603764
vt 0.543174 0.603764
vt 0.527403 0.603764
vt 0.543174 0.566772
vt 0.543174 0.561293
vt 0.543174 0.558155
vt 0.527403 0.558155
vt 0.527403 0.561293
vt 0.472538 0.561293
vt 0.456767 0.561293
vt 0.472538 0.524301
vt 0.472538 0.518822
vt 0.472538 0.513591
vt 0.456767 0.513591
vt 0.456767 0.518822
vt 0.394612 0.518822
vt 0.375000 0.518822
vt 0.375000 0.731178
vt 0.394612 0.731178
vt 0.125000 0.518822
vt 0.125000 0.731178
vt 1.000000 0.500000
vt 0.968750 0.500000
vt 0.968750 0.555674
vt 1.000000 0.555674
vt 0.937500 0.500000
vt 0.937500 0.555674
vt 0.960165 0.555674
vt 0.906250 0.500000
vt 0.906250 0.555674
vt 0.875000 0.555674
vt 0.843750 0.500000
vt 0.843750 0.555674
vt 0.859491 0.555674
vt 0.812500 0.500000
vt 0.812500 0.555674
vt 0.781250 0.500000
vt 0.781250 0.555674
vt 0.750000 0.500000
vt 0.750000 0.555674
vt 0.718750 0.500000
vt 0.718750 0.555674
vt 0.687500 0.500000
vt 0.687500 0.555674
vt 0.656250 0.500000
vt 0.656250 0.555674
vt 0.625000 0.555674
vt 0.640509 0.555674
vt 0.593750 0.500000
vt 0.593750 0.555674
vt 0.562500 0.500000
vt 0.562500 0.555674
vt 0.531250 0.500000
vt 0.531250 0.555674
vt 0.539835 0.555674
vt 0.500000 0.500000
vt 0.500000 0.555674
vt 0.468750 0.500000
vt 0.468750 0.555674
vt 0.437500 0.500000
vt 0.437500 0.555674
vt 0.406250 0.500000
vt 0.406250 0.555674
vt 0.375000 0.555674
vt 0.343750 0.500000
vt 0.343750 0.555674
vt 0.359491 0.555674
vt 0.365345 0.555674
vt 0.312500 0.500000
vt 0.312500 0.555674
vt 0.281250 0.500000
vt 0.281250 0.555674
vt 0.250000 0.500000
vt 0.250000 0.555674
vt 0.218750 0.500000
vt 0.218750 0.555674
vt 0.187500 0.500000
vt 0.187500 0.555674
vt 0.156250 0.500000
vt 0.156250 0.555674
vt 0.125000 0.555674
vt 0.134655 0.555674
vt 0.140509 0.555674
vt 0.093750 0.500000
vt 0.093750 0.555674
vt 0.062500 0.500000
vt 0.062500 0.555674
vt 0.031250 0.500000
vt 0.031250 0.555674
vt 0.000000 0.500000
vt 0.000000 0.555674
vt 0.796822 0.014612
vt 0.841844 0.028269
vt 0.883337 0.050447
vt 0.919706 0.080294
vt 0.949553 0.116663
vt 0.971731 0.158156
vt 0.985388 0.203178
vt 0.990000 0.250000
vt 0.985388 0.296822
vt 0.971731 0.341844
vt 0.949553 0.383337
vt 0.919706 0.419706
vt 0.883337 0.449553
vt 0.841844 0.471731
vt 0.703178 0.485388
vt 0.750000 0.490000
vt 0.750000 0.010000
vt 0.137500 0.737500
vt 0.137500 0.750000
vt 0.125000 0.737500
vt 0.612500 0.000000
vt 0.625000 0.012500
vt 0.612500 0.012500
vt 0.137500 0.512500
vt 0.125000 0.512500
vt 0.137500 0.500000
vt 0.625000 0.249791
vt 0.612500 0.262471
vt 0.612500 0.237500
vt 0.362500 0.737500
vt 0.387471 0.737500
vt 0.385749 0.761624
vt 0.636624 0.739251
vt 0.612500 0.762500
vt 0.612500 0.737529
vt 0.362500 0.512500
vt 0.385749 0.488376
vt 0.387471 0.512500
vt 0.636624 0.510749
vt 0.612500 0.512471
vt 0.612500 0.487500
vt 0.387500 0.000000
vt 0.387500 0.012500
vt 0.387500 0.262500
vt 0.387500 0.237500
vt 0.625000 0.987500
vt 0.612500 0.987500
vt 0.387500 0.987500
vt 0.862500 0.512500
vt 0.862500 0.737500
vt 0.592859 0.571089
vt 0.592859 0.676647
vt 0.596818 0.671370
vt 0.596818 0.576366
vt 0.517632 0.671370
vt 0.493876 0.671370
vt 0.493876 0.576366
vt 0.517632 0.576366
vt 0.521591 0.676648
vt 0.521591 0.571088
vt 0.489917 0.571089
vt 0.418649 0.571089
vt 0.414690 0.576367
vt 0.414690 0.671370
vt 0.418649 0.676647
vt 0.489917 0.676648
vt 0.612500 0.012500
vt 0.612500 0.237500
vt 0.141266 0.512500
vt 0.141655 0.499805
vt 0.612500 0.266237
vt 0.625195 0.254158
vt 0.141655 0.750194
vt 0.141266 0.737500
vt 0.625195 0.983345
vt 0.612500 0.983734
vt 0.387471 0.983720
vt 0.858720 0.512471
vt 0.858720 0.737529
vt 0.387471 0.266280
vt 0.612500 0.266237
vt 0.612500 0.983734
s 0
usemtl Material.001
f 14/1/1 24/2/1 6/3/1 4/4/1
f 260/5/2 249/6/2 12/7/2 10/8/2 4/4/2 6/3/2 222/9/2 223/10/2
f 26/11/3 34/12/3 9/13/3 7/14/3
f 211/15/4 189/16/4 3/17/4 1/18/4 7/14/4 9/13/4 258/19/4 257/20/4
f 18/21/5 26/11/5 7/14/5 1/22/5
f 19/23/1 3/24/1 43/24/1 44/23/1
f 24/2/1 23/25/1 48/25/1 36/2/1
f 6/3/1 24/2/1 36/2/1 37/3/1
f 222/9/2 6/3/2 37/3/2 217/9/2
f 38/7/2 12/7/2 249/6/2 244/6/2
f 4/26/5 10/8/5 30/27/5 14/28/5
f 14/28/5 30/27/5 29/29/5 15/30/5
f 15/30/5 29/29/5 27/31/5 16/32/5
f 16/32/5 27/31/5 26/11/5 18/21/5
f 10/8/3 12/7/3 32/33/3 30/27/3
f 271/34/3 29/29/3 30/27/3 32/33/3 269/35/3 268/36/3 267/37/3 270/38/3
f 279/39/3 27/31/3 29/29/3 271/34/3 275/40/3 276/41/3 274/42/3 277/43/3 272/44/3 273/45/3 278/46/3
f 281/47/3 34/12/3 26/11/3 27/31/3 279/39/3 282/48/3 283/49/3 280/50/3
f 1/51/1 3/24/1 19/23/1 18/52/1
f 18/52/1 19/23/1 21/53/1 16/54/1
f 16/54/1 21/53/1 23/25/1 15/55/1
f 15/55/1 23/25/1 24/2/1 14/1/1
f 78/23/1 52/23/1 53/53/1 46/53/1 44/23/1
f 70/60/1 36/2/1 48/25/1 55/25/1 56/2/1
f 285/61/3 49/33/3 80/33/3 58/33/3 59/62/3 284/62/3
f 292/63/3 40/12/3 34/12/3 281/47/3 287/64/3 286/65/3 288/66/3 289/67/3 290/68/3 291/69/3
f 21/53/1 19/23/1 44/23/1 46/53/1
f 32/33/3 12/7/3 38/7/3 49/33/3
f 258/19/4 9/13/4 41/13/4 254/19/4
f 187/16/4 43/17/4 3/17/4 189/16/4
f 23/25/1 21/53/1 46/53/1 48/25/1
f 269/35/3 32/33/3 49/33/3 285/61/3 296/70/3 295/71/3 297/72/3 298/73/3 294/74/3 293/75/3
f 9/13/3 34/12/3 40/12/3 41/13/3
f 205/76/2 85/77/2 65/77/2 207/76/2
f 234/78/2 67/62/2 89/62/2 233/78/2
f 213/57/2 70/58/2 56/58/2 215/57/2
f 238/59/2 58/33/2 80/33/2 241/80/2
f 284/62/3 59/62/3 60/81/3 306/81/3 305/82/3 299/83/3 301/84/3 300/85/3 304/86/3 302/87/3 303/88/3
f 48/25/1 46/53/1 53/53/1 55/25/1
f 264/89/4 74/90/4 62/12/4 261/91/4
f 197/92/4 195/92/4 52/93/4 78/93/4
f 306/81/3 60/81/3 62/12/3 74/90/3 40/12/3 292/63/3
f 85/25/1 55/25/1 53/53/1 83/53/1 64/53/1 65/25/1
f 229/94/4 91/81/4 68/81/4 231/94/4
f 200/95/4 201/95/4 64/79/4 83/79/4
f 91/81/3 60/81/3 59/62/3 89/62/3 67/62/3 68/81/3
f 197/109/3 190/110/3 196/111/3
f 188/112/3 185/113/3 186/114/3 187/115/3 189/116/3 211/117/3 223/118/3 222/119/3 217/120/3 221/121/3 220/122/3 219/123/3 218/124/3 212/125/3 213/126/3 215/127/3 214/128/3 224/129/3 216/130/3 206/131/3 209/132/3 205/133/3 207/134/3 203/135/3 204/136/3 208/137/3 202/138/3 199/139/3 198/140/3 201/141/3 200/142/3 210/143/3 193/144/3 194/145/3 192/146/3 191/147/3 195/148/3 197/109/3 196/111/3 190/110/3
f 205/133/3 209/132/3 206/131/3
f 200/142/3 193/144/3 210/143/3
f 213/126/3 212/125/3 218/124/3
f 228/149/1 227/150/1 229/151/1
f 254/152/1 252/153/1 251/154/1 253/155/1 255/156/1 263/157/1 264/158/1 261/159/1 256/160/1 259/161/1 262/162/1 227/150/1 228/149/1 229/151/1 231/163/1 225/164/1 226/165/1 230/166/1 235/167/1 243/168/1 232/169/1 234/170/1 233/171/1 236/172/1 242/173/1 237/174/1 239/175/1 240/176/1 238/177/1 241/178/1 250/179/1 246/180/1 245/181/1 247/182/1 248/183/1 244/184/1 249/185/1 260/186/1 257/187/1 258/188/1
f 241/178/1 246/180/1 250/179/1
f 233/171/1 242/173/1 236/172/1
f 263/157/1 255/156/1 264/158/1
f 223/189/6 211/190/6 257/187/6 260/186/6
f 211/117/3 223/118/3 265/10/3
f 260/186/1 257/187/1 266/5/1
f 2/191/9 5/192/9 293/193/9 294/194/9
f 5/192/10 8/195/10 268/196/10 269/197/10 293/193/10
f 8/195/11 11/198/11 267/199/11 268/196/11
f 11/198/12 13/102/12 270/200/12 267/199/12
f 13/102/13 17/201/13 275/202/13 271/203/13 270/200/13
f 17/201/14 20/204/14 276/205/14 275/202/14
f 20/204/15 22/206/15 274/207/15 276/205/15
f 22/206/16 25/208/16 277/209/16 274/207/16
f 25/208/17 28/210/17 272/211/17 277/209/17
f 28/210/18 31/212/18 273/213/18 272/211/18
f 31/212/19 33/214/19 278/215/19 273/213/19
f 33/214/20 35/7/20 282/216/20 279/217/20 278/215/20
f 35/7/21 39/218/21 283/219/21 282/216/21
f 39/218/22 42/220/22 280/221/22 283/219/22
f 42/220/23 45/222/23 287/223/23 281/224/23 280/221/23
f 45/222/24 47/225/24 286/226/24 287/223/24
f 47/225/25 50/227/25 288/228/25 286/226/25
f 50/227/26 51/229/26 289/230/26 288/228/26
f 51/229/27 54/231/27 290/232/27 289/230/27
f 54/231/28 57/8/28 291/233/28 290/232/28
f 57/8/29 61/234/29 305/235/29 306/236/29 292/237/29 291/233/29
f 61/234/30 63/238/30 299/239/30 305/235/30
f 63/238/31 66/240/31 301/241/31 299/239/31
f 66/240/32 69/242/32 300/243/32 301/241/32
f 69/242/33 73/244/33 304/245/33 300/243/33
f 73/244/34 76/246/34 302/247/34 304/245/34
f 76/246/35 79/248/35 303/249/35 302/247/35
f 79/248/36 82/26/36 296/250/36 285/251/36 284/252/36 303/249/36
f 82/26/37 84/253/37 295/254/37 296/250/37
f 84/253/38 88/255/38 297/256/38 295/254/38
f 88/255/39 90/257/39 298/258/39 297/256/39
f 90/257/40 2/259/40 294/260/40 298/258/40
usemtl Material.003
f 112/56/6 77/56/6 145/56/6 179/56/6
f 215/57/5 56/58/5 101/58/5 214/57/5
f 240/59/5 102/33/5 58/33/5 238/59/5
f 64/79/5 107/79/5 175/79/5 137/79/5
f 108/81/5 68/81/5 140/81/5 184/81/5
f 190/96/6 197/92/6 78/93/6 77/56/6 188/97/6
f 255/98/6 253/99/6 75/13/6 74/90/6 264/89/6
f 218/100/6 219/101/6 71/102/6 70/58/6 213/57/6
f 246/103/6 241/80/6 80/33/6 72/7/6 245/104/6
f 206/105/6 216/57/6 86/58/6 85/77/6 205/76/6
f 242/106/6 233/78/6 89/62/6 87/33/6 237/59/6
f 193/107/6 200/95/6 83/79/6 81/93/6 194/92/6
f 227/108/6 262/91/6 92/12/6 91/81/6 229/94/6
f 208/76/6 94/77/6 93/79/6 202/95/6
f 230/94/6 96/81/6 95/62/6 235/78/6
f 115/93/6 81/93/6 149/93/6 172/93/6
f 49/33/5 38/7/5 127/7/5 128/33/5
f 52/93/5 103/93/5 171/93/5 129/93/5
f 91/81/6 92/12/6 156/12/6 155/81/6
f 235/78/6 95/62/6 118/62/6 243/78/6
f 204/76/6 117/77/6 94/77/6 208/76/6
f 188/97/6 77/56/6 112/56/6 185/97/6
f 251/99/6 111/13/6 75/13/6 253/99/6
f 120/81/4 108/81/4 184/81/4 183/81/4
f 87/33/6 89/62/6 154/62/6 153/33/6
f 106/62/2 118/62/2 182/62/2 181/62/2
f 85/77/6 86/58/6 152/58/6 151/77/6
f 231/94/5 68/81/5 108/81/5 225/94/5
f 198/95/5 107/79/5 64/79/5 201/95/5
f 100/17/4 112/17/4 179/17/4 180/17/4
f 214/57/2 101/58/2 113/58/2 224/57/2
f 239/59/2 114/33/2 102/33/2 240/59/2
f 221/9/2 97/3/2 109/3/2 220/9/2
f 247/6/2 110/7/2 98/7/2 248/6/2
f 252/19/4 99/13/4 111/13/4 251/19/4
f 185/16/4 112/17/4 100/17/4 186/16/4
f 256/91/4 104/12/4 116/12/4 259/91/4
f 192/92/4 115/93/4 103/93/4 191/92/4
f 203/76/2 105/77/2 117/77/2 204/76/2
f 243/78/2 118/62/2 106/62/2 232/78/2
f 225/94/4 108/81/4 120/81/4 226/94/4
f 199/95/4 119/79/4 107/79/4 198/95/4
f 202/95/6 93/79/6 119/79/6 199/95/6
f 226/94/6 120/81/6 96/81/6 230/94/6
f 44/23/5 43/24/5 125/24/5 126/23/5
f 237/59/6 87/33/6 114/33/6 239/59/6
f 224/57/6 113/58/6 86/58/6 216/57/6
f 67/62/5 106/62/5 181/62/5 139/62/5
f 217/9/5 37/3/5 97/3/5 221/9/5
f 248/6/5 98/7/5 38/7/5 244/6/5
f 81/93/6 83/79/6 150/79/6 149/93/6
f 117/77/2 105/77/2 178/77/2 177/77/2
f 71/102/6 109/102/6 163/102/6 142/102/6
f 62/12/5 60/81/5 135/81/5 136/12/5
f 254/19/5 41/13/5 99/13/5 252/19/5
f 186/16/5 100/17/5 43/17/5 187/16/5
f 261/91/5 62/12/5 104/12/5 256/91/5
f 191/92/5 103/93/5 52/93/5 195/92/5
f 83/79/2 53/79/2 130/79/2 150/79/2
f 194/92/6 81/93/6 115/93/6 192/92/6
f 259/91/6 116/12/6 92/12/6 262/91/6
f 107/79/4 119/79/4 176/79/4 175/79/4
f 41/13/5 40/12/5 123/12/5 124/13/5
f 245/104/6 72/7/6 110/7/6 247/104/6
f 220/101/6 109/102/6 71/102/6 219/101/6
f 207/76/5 65/77/5 105/77/5 203/76/5
f 232/78/5 106/62/5 67/62/5 234/78/5
f 43/17/5 100/17/5 180/17/5 125/17/5
f 128/33/3 127/7/3 147/7/3 148/33/3
f 122/3/1 121/2/1 141/2/1 142/3/1
f 136/12/3 135/81/3 155/81/3 156/12/3
f 132/2/1 152/2/1 166/2/1 165/2/1
f 130/53/1 129/23/1 149/23/1 150/53/1
f 124/13/3 123/12/3 143/12/3 144/13/3
f 138/25/1 137/53/1 157/53/1 158/25/1
f 132/2/1 131/25/1 151/25/1 152/2/1
f 140/81/3 139/62/3 159/62/3 160/81/3
f 126/23/1 125/24/1 145/24/1 146/23/1
f 134/62/3 133/33/3 153/33/3 154/62/3
f 149/23/1 129/23/1 171/23/1 172/23/1
f 124/13/3 144/13/3 173/13/3 174/13/3
f 153/33/3 133/33/3 168/33/3 167/33/3
f 157/53/1 137/53/1 175/53/1 176/53/1
f 147/7/3 127/7/3 169/7/3 170/7/3
f 136/12/3 156/12/3 161/12/3 162/12/3
f 138/25/1 158/25/1 177/25/1 178/25/1
f 145/24/1 125/24/1 180/24/1 179/24/1
f 122/3/1 142/3/1 163/3/1 164/3/1
f 159/62/3 139/62/3 181/62/3 182/62/3
f 140/81/3 160/81/3 183/81/3 184/81/3
f 93/79/6 94/77/6 158/77/6 157/79/6
f 75/13/6 111/13/6 173/13/6 144/13/6
f 95/62/6 96/81/6 160/81/6 159/62/6
f 118/62/6 95/62/6 159/62/6 182/62/6
f 65/25/5 64/53/5 137/53/5 138/25/5
f 94/77/6 117/77/6 177/77/6 158/77/6
f 68/81/5 67/62/5 139/62/5 140/81/5
f 86/58/6 113/58/6 166/58/6 152/58/6
f 60/81/2 91/81/2 155/81/2 135/81/2
f 101/58/5 56/58/5 132/58/5 165/58/5
f 58/33/5 102/33/5 168/33/5 133/33/5
f 36/58/4 70/58/4 141/58/4 121/58/4
f 119/79/6 93/79/6 157/79/6 176/79/6
f 96/81/6 120/81/6 183/81/6 160/81/6
f 78/93/2 44/93/2 126/93/2 146/93/2
f 99/13/5 41/13/5 124/13/5 174/13/5
f 40/12/2 74/90/2 143/12/2 123/12/2
f 114/33/6 87/33/6 153/33/6 167/33/6
f 116/12/4 104/12/4 162/12/4 161/12/4
f 70/58/6 71/102/6 142/102/6 141/58/6
f 97/3/5 37/3/5 122/3/5 164/3/5
f 109/3/2 97/3/2 164/3/2 163/3/2
f 38/7/5 98/7/5 169/7/5 127/7/5
f 113/58/2 101/58/2 165/58/2 166/58/2
f 74/90/6 75/13/6 144/13/6 143/12/6
f 53/53/5 52/23/5 129/23/5 130/53/5
f 110/7/6 72/7/6 147/7/6 170/7/6
f 102/33/2 114/33/2 167/33/2 168/33/2
f 80/33/4 49/33/4 128/33/4 148/33/4
f 92/12/6 116/12/6 161/12/6 156/12/6
f 98/7/2 110/7/2 170/7/2 169/7/2
f 89/62/4 59/62/4 134/62/4 154/62/4
f 77/56/6 78/93/6 146/93/6 145/56/6
f 56/2/5 55/25/5 131/25/5 132/2/5
f 104/12/5 62/12/5 136/12/5 162/12/5
f 37/3/5 36/2/5 121/2/5 122/3/5
f 103/93/4 115/93/4 172/93/4 171/93/4
f 55/77/4 85/77/4 151/77/4 131/77/4
f 72/7/6 80/33/6 148/33/6 147/7/6
f 59/62/5 58/33/5 133/33/5 134/62/5
f 105/77/5 65/77/5 138/77/5 178/77/5
f 111/13/4 99/13/4 174/13/4 173/13/4
f 223/10/7 260/5/7 266/5/7 265/10/7
f 257/20/8 211/15/8 265/10/8 266/5/8
usemtl Material.005
f 45/261/3 42/262/3 39/263/3 35/264/3 33/265/3 31/266/3 28/267/3 25/268/3 22/269/3 20/270/3 17/271/3 13/272/3 11/273/3 8/274/3 5/275/3 2/276/3 90/275/3 88/274/3 84/273/3 82/272/3 79/271/3 76/270/3 73/269/3 69/268/3 66/267/3 63/266/3 61/265/3 57/264/3 54/263/3 51/262/3 50/261/3 47/277/3
f 352/303/3 362/305/3 366/328/3 358/327/3
f 369/303/3 374/305/3 378/328/3 372/327/3
usemtl Material.002
f 307/51/1 308/24/1 310/3/1 309/4/1
f 309/4/2 310/3/2 314/7/2 313/8/2
f 313/8/3 314/7/3 312/13/3 311/14/3
f 311/14/4 312/13/4 308/17/4 307/18/4
f 309/26/5 313/8/5 311/14/5 307/22/5
f 314/7/6 310/102/6 308/56/6 312/13/6
f 315/51/1 316/24/1 318/3/1 317/4/1
f 317/4/6 318/3/6 322/7/6 321/8/6
f 321/8/3 322/7/3 320/13/3 319/14/3
f 319/14/5 320/13/5 316/17/5 315/18/5
f 317/26/2 321/8/2 319/14/2 315/22/2
f 322/7/4 318/102/4 316/56/4 320/13/4
f 347/51/1 349/24/1 353/3/1 351/4/1
f 351/4/2 353/3/2 361/7/2 359/8/2
f 385/311/3 361/7/3 357/13/3 379/312/3 381/313/3 386/314/3
f 391/315/3 392/316/3 380/317/3 382/318/3
f 392/316/3 391/315/3 389/319/3 379/312/3 357/13/3 355/14/3 359/8/3 361/7/3 385/311/3 384/320/3 382/318/3 380/317/3 383/321/3 394/322/3 393/323/3 390/324/3 387/325/3 388/326/3
f 355/14/4 357/13/4 349/17/4 347/18/4
f 351/26/5 359/8/5 355/14/5 347/22/5
f 361/7/6 353/102/6 349/56/6 357/13/6
f 348/278/61 352/280/61 350/279/61
f 354/281/62 358/327/62 356/282/62
f 360/284/63 363/286/63 362/285/63
f 364/287/64 366/328/64 365/288/64
f 360/284/65 362/285/65 352/280/65 348/278/65
f 350/302/66 352/303/66 358/327/66 354/281/66
f 356/282/67 358/327/67 366/328/67 364/287/67
f 365/288/68 366/328/68 362/305/68 363/304/68
f 363/286/69 360/284/69 382/329/69 384/330/69
f 364/287/70 365/288/70 385/331/70 386/332/70
f 348/278/71 350/279/71 389/333/71 391/334/71
f 354/307/72 356/306/72 381/335/72 379/336/72
f 360/284/6 348/278/6 391/334/6 382/329/6
f 350/308/2 354/307/2 379/336/2 389/337/2
f 356/310/5 364/309/5 386/338/5 381/339/5
f 385/331/4 365/288/4 363/304/4 384/340/4
f 367/278/61 369/280/61 368/279/61
f 370/281/62 372/327/62 371/282/62
f 373/284/63 375/286/63 374/285/63
f 376/287/64 378/328/64 377/288/64
f 373/284/65 374/285/65 369/280/65 367/278/65
f 368/302/66 369/303/66 372/327/66 370/281/66
f 371/282/67 372/327/67 378/328/67 376/287/67
f 377/288/68 378/328/68 374/305/68 375/304/68
f 375/286/69 373/284/69 393/329/69 394/330/69
f 376/287/70 377/288/70 383/341/70 380/332/70
f 367/278/71 368/279/71 387/333/71 390/334/71
f 370/307/72 371/306/72 392/335/72 388/342/72
f 373/284/6 367/278/6 390/334/6 393/329/6
f 387/337/2 368/308/2 370/307/2 388/342/2
f 371/310/5 376/309/5 380/338/5 392/339/5
f 383/341/4 377/288/4 375/304/4 394/340/4
usemtl Material.004
f 323/278/41 324/279/41 325/280/41
f 326/281/42 327/282/42 328/283/42
f 329/284/43 330/285/43 331/286/43
f 332/287/44 333/288/44 334/289/44
f 335/290/45 336/291/45 337/292/45
f 338/293/46 339/294/46 340/295/46
f 341/296/47 342/297/47 343/298/47
f 344/299/48 345/300/48 346/301/48
f 329/284/49 323/278/49 325/280/49 330/285/49
f 324/302/50 326/281/50 328/283/50 325/303/50
f 327/282/51 332/287/51 334/289/51 328/283/51
f 333/288/52 331/304/52 330/305/52 334/289/52
f 341/296/53 329/284/53 331/286/53 342/297/53
f 332/287/54 344/299/54 346/301/54 333/288/54
f 345/300/55 343/298/55 342/297/55 346/301/55
f 335/290/56 341/296/56 343/298/56 336/291/56
f 344/299/57 338/293/57 340/295/57 345/300/57
f 339/294/58 337/292/58 336/291/58 340/295/58
f 323/278/59 335/290/59 337/292/59 324/279/59
f 338/293/60 327/306/60 326/307/60 339/294/60
f 329/284/5 341/296/5 335/290/5 323/278/5
f 325/303/1 328/283/1 334/289/1 330/305/1
f 337/292/4 339/294/4 326/307/4 324/308/4
f 344/299/6 332/309/6 327/310/6 338/293/6
f 331/304/2 333/288/2 346/301/2 342/297/2
f 343/298/3 345/300/3 340/295/3 336/291/3
