# Blender 4.5.4 LTS
# www.blender.org
mtllib House.mtl
o House
v -1.000000 -1.000000 1.000000
v 0.928238 1.116585 0.404799
v -1.000000 1.000000 1.000000
v 0.928238 1.466484 0.404799
v -1.000000 -1.000000 -1.000000
v 0.928238 1.116585 0.054900
v -1.000000 1.000000 -1.000000
v 0.928238 1.466484 0.054900
v 1.000000 -1.000000 1.000000
v 1.000000 1.000000 1.000000
v 1.000000 -1.000000 -1.000000
v 1.000000 1.000000 -1.000000
v 0.928238 1.116585 -0.050069
v -1.000000 1.220969 1.000000
v -1.000000 1.220969 -1.000000
v 0.928238 1.466484 -0.050069
v 0.928238 1.116585 -0.399968
v 1.000000 1.220969 -1.000000
v 1.000000 1.220969 1.000000
v 0.928238 1.466484 -0.399968
v -1.000000 -1.000000 0.000000
v -1.000000 1.000000 0.000000
v 1.000000 -1.000000 0.000000
v 1.000000 1.000000 0.000000
v 0.928238 0.661717 0.404799
v -1.000000 2.095654 0.000000
v 1.000000 2.095654 0.000000
v 0.928238 1.011616 0.404799
v 0.928238 0.661717 0.054900
v 0.928238 1.011616 0.054900
v 0.928238 0.661717 -0.050069
v 0.928238 1.011616 -0.050069
v 0.928238 0.661717 -0.399968
v 0.928238 1.011616 -0.399968
v 1.000000 0.661717 0.404799
v 1.000000 1.000000 0.404799
v 1.000000 0.661717 0.054900
v 1.000000 1.000000 0.054900
v 1.000000 1.011616 -0.052568
v 1.000000 1.000000 -0.050069
v 1.000000 1.011616 -0.399968
v 1.000000 1.000000 -0.399968
v 1.000000 1.011616 -0.050069
v 1.000000 1.116585 -0.050069
v 1.000000 1.466484 -0.050069
v 1.000000 1.116585 -0.399968
v 1.000000 1.466484 -0.399968
v 1.000000 1.116585 -0.328206
v 1.000000 1.011616 0.404799
v 1.000000 1.116585 0.404799
v 1.000000 1.466484 0.404799
v 1.000000 1.011616 0.054900
v 1.000000 1.116585 0.054900
v 1.000000 1.466484 0.054900
v 1.000000 0.661717 -0.399968
v 1.000000 0.661717 -0.050069
v -1.094109 2.164155 0.071074
v -1.094109 2.274450 0.070988
v -1.181330 2.219253 0.007622
v -1.094109 2.219322 0.097096
v -1.144466 2.219310 0.080487
v -1.155783 2.258283 0.052229
v -1.155783 2.180293 0.052289
v -1.094109 2.282690 0.061643
v -1.094109 2.282200 -0.062895
v -1.181330 2.226331 -0.000405
v -1.094109 2.305529 -0.000717
v -1.144466 2.290844 -0.000659
v -1.155783 2.265677 -0.044591
v -1.155783 2.266023 0.043470
v -1.094109 1.097853 -1.134425
v -1.181330 1.160371 -1.189488
v -1.094109 1.105175 -1.251889
v -1.155783 1.116164 -1.150553
v -1.144466 1.092409 -1.193725
v -1.155783 1.121342 -1.233612
v -1.094109 1.077135 -1.194677
v -1.094109 1.223283 -1.244902
v -1.094109 1.105175 -1.251889
v -1.181330 1.160764 -1.189834
v -1.094109 1.165664 -1.272651
v -1.144466 1.164765 -1.257453
v -1.155783 1.121457 -1.233713
v -1.155783 1.204971 -1.228772
v 1.094109 2.164155 0.071074
v 1.181330 2.219253 0.007622
v 1.094109 2.274450 0.070988
v 1.155783 2.180293 0.052289
v 1.144466 2.219310 0.080487
v 1.155783 2.258283 0.052229
v 1.094109 2.219322 0.097096
v 1.094109 2.282200 -0.062895
v 1.094109 2.282690 0.061643
v 1.181330 2.226331 -0.000405
v 1.094109 2.305529 -0.000717
v 1.144466 2.290844 -0.000659
v 1.155783 2.266023 0.043470
v 1.155783 2.265677 -0.044591
v 1.094109 1.097853 -1.134425
v 1.094109 1.105175 -1.251889
v 1.181330 1.160371 -1.189488
v 1.094109 1.077135 -1.194677
v 1.144466 1.092409 -1.193725
v 1.155783 1.121342 -1.233612
v 1.155783 1.116164 -1.150553
v 1.094109 1.223283 -1.244902
v 1.181330 1.160764 -1.189834
v 1.094109 1.105175 -1.251889
v 1.155783 1.204971 -1.228772
v 1.144466 1.164765 -1.257453
v 1.155783 1.121457 -1.233713
v 1.094109 1.165664 -1.272651
v -1.094109 2.164155 -0.071074
v -1.181330 2.219253 -0.007621
v -1.094109 2.274449 -0.070988
v -1.155783 2.180293 -0.052289
v -1.144466 2.219309 -0.080487
v -1.155783 2.258283 -0.052228
v -1.094109 2.219322 -0.097096
v -1.094109 2.282690 -0.061642
v -1.181330 2.226331 0.000405
v -1.094109 2.282200 0.062895
v -1.155783 2.266023 -0.043470
v -1.144466 2.290844 0.000659
v -1.155783 2.265676 0.044592
v -1.094109 2.305529 0.000717
v -1.094109 1.097853 1.134426
v -1.094109 1.105175 1.251890
v -1.181330 1.160371 1.189489
v -1.094109 1.077135 1.194677
v -1.144466 1.092409 1.193725
v -1.155783 1.121342 1.233613
v -1.155783 1.116164 1.150553
v -1.094109 1.223283 1.244902
v -1.181330 1.160764 1.189835
v -1.094109 1.105175 1.251890
v -1.155783 1.204971 1.228772
v -1.144466 1.164765 1.257454
v -1.155783 1.121457 1.233713
v -1.094109 1.165664 1.272652
v 1.094109 2.164155 -0.071074
v 1.094109 2.274449 -0.070988
v 1.181330 2.219253 -0.007621
v 1.094109 2.219322 -0.097096
v 1.144466 2.219309 -0.080487
v 1.155783 2.258283 -0.052228
v 1.155783 2.180293 -0.052289
v 1.094109 2.282200 0.062895
v 1.181330 2.226331 0.000405
v 1.094109 2.282690 -0.061642
v 1.155783 2.265676 0.044592
v 1.144466 2.290844 0.000659
v 1.155783 2.266023 -0.043470
v 1.094109 2.305529 0.000717
v 1.094109 1.097853 1.134426
v 1.181330 1.160371 1.189489
v 1.094109 1.105175 1.251890
v 1.155783 1.116164 1.150553
v 1.144466 1.092409 1.193725
v 1.155783 1.121342 1.233613
v 1.094109 1.077135 1.194677
v 1.094109 1.223283 1.244902
v 1.094109 1.105175 1.251890
v 1.181330 1.160764 1.189835
v 1.094109 1.165664 1.272652
v 1.144466 1.164765 1.257454
v 1.155783 1.121457 1.233713
v 1.155783 1.204971 1.228772
v 0.890896 -0.999294 0.048381
v 1.020276 0.101308 -0.082569
v 0.890896 0.506760 0.048381
v 1.020276 0.115365 -0.068513
v 0.890896 -0.999294 -0.814546
v 1.006219 0.115365 -0.082569
v 0.890896 0.506760 -0.814546
v 1.020276 0.368388 -0.068513
v 1.024511 -0.999294 0.048381
v 1.020276 0.382445 -0.082569
v 1.006219 0.368388 -0.082569
v 1.024511 0.506760 0.048381
v 1.024511 -0.999294 -0.814546
v 1.020276 0.101308 -0.335592
v 1.024511 0.506760 -0.814546
v 1.006219 0.115365 -0.335592
v 1.020276 0.115365 -0.349649
v 1.020276 0.382445 -0.335592
v 1.020276 0.368388 -0.349649
v 1.006219 0.368388 -0.335592
v 1.020276 0.101308 -0.448047
v 1.020276 0.115365 -0.433990
v 1.006219 0.115365 -0.448047
v 1.020276 0.368388 -0.433990
v 1.020276 0.382445 -0.448047
v 1.006219 0.368388 -0.448047
v 1.020276 0.101308 -0.701070
v 1.006219 0.115365 -0.701070
v 1.020276 0.115365 -0.715127
v 1.020276 0.382445 -0.701070
v 1.020276 0.368388 -0.715127
v 1.006219 0.368388 -0.701070
v 1.020276 -0.264170 -0.082569
v 1.020276 -0.250113 -0.068513
v 1.006219 -0.250113 -0.082569
v 1.020276 0.002910 -0.068513
v 1.020276 0.016967 -0.082569
v 1.006219 0.002910 -0.082569
v 1.020276 -0.264170 -0.335592
v 1.006219 -0.250113 -0.335592
v 1.020276 -0.250113 -0.349649
v 1.020276 0.016967 -0.335592
v 1.020276 0.002910 -0.349649
v 1.006219 0.002910 -0.335592
v 1.020276 -0.264170 -0.448047
v 1.020276 -0.250113 -0.433990
v 1.006219 -0.250113 -0.448047
v 1.020276 0.002910 -0.433990
v 1.020276 0.016967 -0.448047
v 1.006219 0.002910 -0.448047
v 1.020276 -0.264170 -0.701070
v 1.006219 -0.250113 -0.701070
v 1.020276 -0.250113 -0.715127
v 1.020276 0.016967 -0.701070
v 1.020276 0.002910 -0.715127
v 1.006219 0.002910 -0.701070
v 1.024511 0.382445 -0.082569
v 1.024511 0.368388 -0.068513
v 1.024511 0.016967 -0.335592
v 1.024511 0.101308 -0.335592
v 1.024511 0.382445 -0.335592
v 1.024511 0.002910 -0.349649
v 1.024511 0.115365 -0.349649
v 1.024511 0.368388 -0.433990
v 1.024511 0.368388 -0.349649
v 1.024511 -0.250113 -0.433990
v 1.024511 0.002910 -0.433990
v 1.024511 0.115365 -0.433990
v 1.024511 0.016967 -0.448047
v 1.024511 0.101308 -0.448047
v 1.024511 0.016967 -0.701070
v 1.024511 -0.264170 -0.448047
v 1.024511 0.101308 -0.701070
v 1.024511 0.368388 -0.715127
v 1.024511 0.002910 -0.715127
v 1.024511 0.115365 -0.715127
v 1.024511 -0.250113 -0.715127
v 1.024511 0.382445 -0.701070
v 1.024511 -0.264170 -0.701070
v 1.024511 0.382445 -0.448047
v 1.024511 -0.250113 -0.068513
v 1.024511 0.002910 -0.068513
v 1.024511 0.115365 -0.068513
v 1.024511 -0.264170 -0.082569
v 1.024511 0.101308 -0.082569
v 1.024511 0.016967 -0.082569
v 1.024511 -0.264170 -0.335592
v 1.024511 -0.250113 -0.349649
v 1.063168 -0.357142 -0.716770
v 1.063168 -0.360284 -0.725267
v 1.065754 -0.360284 -0.716770
v 1.063168 -0.416826 -0.725267
v 1.063168 -0.419967 -0.716770
v 1.065754 -0.416826 -0.716770
v 1.063168 -0.357142 -0.563819
v 1.065754 -0.360284 -0.563819
v 1.063168 -0.360284 -0.555322
v 1.063168 -0.419967 -0.563819
v 1.063168 -0.416826 -0.555322
v 1.065754 -0.416826 -0.563819
v 1.016628 -0.357142 -0.716770
v 1.014043 -0.360284 -0.716770
v 1.016628 -0.360284 -0.725267
v 1.016628 -0.419967 -0.716770
v 1.016628 -0.416826 -0.725267
v 1.014043 -0.416826 -0.716770
v 1.016628 -0.357142 -0.563819
v 1.016628 -0.360284 -0.555322
v 1.014043 -0.360284 -0.563819
v 1.016628 -0.419967 -0.563819
v 1.014043 -0.416826 -0.563819
v 1.016628 -0.416826 -0.555322
vn -1.0000 -0.0000 -0.0000
vn -0.0000 -0.0000 -1.0000
vn 1.0000 -0.0000 -0.0000
vn -0.0000 -0.0000 1.0000
vn -0.0000 -1.0000 -0.0000
vn -0.0000 0.7527 0.6584
vn -0.0000 0.7527 -0.6584
vn -0.0000 1.0000 -0.0000
vn -0.3275 -0.4415 0.8353
vn -0.3275 0.4428 0.8347
vn -0.8923 0.0004 0.4514
vn -0.3050 0.8809 0.3618
vn -0.3050 0.8780 -0.3688
vn -0.8682 0.4961 -0.0020
vn -0.3121 -0.8847 0.3463
vn -0.8794 -0.4752 -0.0296
vn -0.3121 -0.8348 -0.4535
vn -0.3112 0.4476 -0.8383
vn -0.3112 -0.3456 -0.8853
vn -0.8784 0.0282 -0.4772
vn 0.3275 -0.4415 0.8353
vn 0.8923 0.0004 0.4514
vn 0.3275 0.4428 0.8347
vn 0.3050 0.8780 -0.3688
vn 0.3050 0.8809 0.3618
vn 0.8682 0.4961 -0.0020
vn 0.3121 -0.8847 0.3463
vn 0.3121 -0.8348 -0.4535
vn 0.8794 -0.4752 -0.0296
vn 0.3112 0.4476 -0.8383
vn 0.8784 0.0282 -0.4772
vn 0.3112 -0.3456 -0.8853
vn -0.3275 -0.4415 -0.8353
vn -0.8923 0.0004 -0.4514
vn -0.3275 0.4428 -0.8347
vn -0.3050 0.8809 -0.3618
vn -0.8683 0.4961 0.0020
vn -0.3050 0.8780 0.3688
vn -0.3121 -0.8847 -0.3463
vn -0.3121 -0.8348 0.4535
vn -0.8794 -0.4752 0.0296
vn -0.3112 0.4476 0.8383
vn -0.8784 0.0282 0.4772
vn -0.3112 -0.3456 0.8853
vn 0.3275 -0.4415 -0.8353
vn 0.3275 0.4428 -0.8347
vn 0.8923 0.0004 -0.4514
vn 0.3050 0.8780 0.3688
vn 0.8683 0.4961 0.0020
vn 0.3050 0.8809 -0.3618
vn 0.3121 -0.8847 -0.3463
vn 0.8794 -0.4752 0.0296
vn 0.3121 -0.8348 0.4535
vn 0.3112 0.4476 0.8383
vn 0.3112 -0.3456 0.8853
vn 0.8784 0.0282 0.4772
vn -0.3688 -0.6962 0.6159
vn -0.9173 -0.2983 0.2639
vn -0.3696 0.6966 0.6149
vn -0.9171 0.2988 0.2638
vn -0.3687 0.6924 -0.6202
vn -0.9173 0.2966 -0.2657
vn -0.3675 -0.6128 -0.6996
vn -0.9175 -0.2628 -0.2987
vn -0.0000 -0.9457 0.3252
vn -0.0000 -0.8979 -0.4401
vn -0.0000 0.4339 -0.9010
vn -0.0000 -0.3247 -0.9458
vn 0.9174 -0.2628 -0.2988
vn 0.3681 -0.6119 -0.7001
vn 0.3688 -0.6962 0.6159
vn 0.9173 -0.2983 0.2639
vn 0.3687 0.6924 -0.6202
vn 0.9173 0.2966 -0.2657
vn 0.3696 0.6966 0.6149
vn 0.9171 0.2988 0.2638
vn -0.0000 -0.4266 0.9044
vn -0.0000 0.4280 0.9038
vn -0.0000 0.9363 -0.3513
vn -0.0000 0.9390 0.3439
vn -0.9173 -0.2983 -0.2639
vn -0.3688 -0.6962 -0.6159
vn -0.9171 0.2988 -0.2638
vn -0.3696 0.6966 -0.6149
vn -0.9173 0.2966 0.2657
vn -0.3687 0.6924 0.6202
vn -0.9174 -0.2628 0.2989
vn -0.3678 -0.6119 0.7002
vn -0.0000 -0.8979 0.4401
vn -0.0000 -0.9457 -0.3252
vn -0.0000 -0.3246 0.9458
vn -0.0000 0.4339 0.9010
vn 0.3677 -0.6119 0.7003
vn 0.9174 -0.2628 0.2988
vn 0.9173 -0.2983 -0.2639
vn 0.3688 -0.6962 -0.6159
vn 0.9173 0.2966 0.2657
vn 0.3687 0.6924 0.6202
vn 0.9171 0.2988 -0.2638
vn 0.3696 0.6966 -0.6149
vn -0.0000 0.4280 -0.9038
vn -0.0000 -0.4266 -0.9044
vn -0.0000 0.9390 -0.3439
vn -0.0000 0.9363 0.3513
vn -0.0000 -0.7490 0.6625
vn -0.0000 0.7501 0.6614
vn -0.0000 0.7448 -0.6673
vn -0.0000 -0.7490 -0.6625
vn -0.0000 0.7501 -0.6614
vn -0.0000 0.7448 0.6673
vn 0.5774 0.5774 -0.5773
vn 0.5774 -0.5774 -0.5773
vn 0.5774 0.5774 0.5773
vn 0.5774 -0.5774 0.5773
vn 0.7071 0.7071 -0.0000
vn 0.7071 -0.0000 -0.7071
vn 0.7071 -0.7071 -0.0000
vn 0.7071 -0.0000 0.7071
vn -0.0000 0.7071 0.7071
vn -0.0000 -0.7071 0.7071
vn -0.0000 0.7071 -0.7071
vn -0.0000 -0.7071 -0.7071
vn -0.7516 -0.6187 0.2287
vn -0.7516 0.6187 0.2287
vn -0.7516 -0.6187 -0.2287
vn -0.7516 0.6187 -0.2287
vn 0.7516 -0.6187 0.2287
vn 0.7516 0.6187 0.2287
vn 0.7516 -0.6187 -0.2287
vn 0.7516 0.6187 -0.2287
vn -0.7721 -0.6355 -0.0000
vn -0.9567 -0.0000 0.2911
vn -0.7721 0.6355 -0.0000
vn -0.9567 -0.0000 -0.2911
vn -0.0000 -0.9380 -0.3467
vn -0.0000 0.9380 -0.3467
vn 0.9567 -0.0000 -0.2911
vn 0.7721 -0.6355 -0.0000
vn 0.7721 0.6355 -0.0000
vn 0.9567 -0.0000 0.2911
vn -0.0000 -0.9380 0.3467
vn -0.0000 0.9380 0.3467
vt 0.375000 0.125000
vt 0.625000 0.125000
vt 0.625000 0.250000
vt 0.375000 0.250000
vt 0.625000 0.500000
vt 0.375000 0.500000
vt 0.625000 0.675600
vt 0.625000 0.750000
vt 0.375000 0.750000
vt 0.375000 0.625000
vt 0.625000 0.625000
vt 0.625000 0.631863
vt 0.582715 0.631863
vt 0.582715 0.675600
vt 0.625000 1.000000
vt 0.375000 1.000000
vt 0.125000 0.625000
vt 0.125000 0.750000
vt 0.625000 0.583974
vt 0.625000 0.618429
vt 0.625000 0.575004
vt 0.625000 0.618741
vt 0.625000 0.618741
vt 0.625000 0.575004
vt 0.875000 0.625000
vt 0.875000 0.750000
vt 0.625000 0.000000
vt 0.875000 0.500000
vt 0.625000 0.675600
vt 0.625000 0.631863
vt 0.625000 0.631863
vt 0.125000 0.500000
vt 0.582715 0.575004
vt 0.582715 0.618741
vt 0.375000 0.000000
vt 0.625000 0.301273
vt 0.375000 0.301273
vt 0.375000 0.948727
vt 0.625000 0.948727
vt 0.176273 0.750000
vt 0.176273 0.500000
vt 0.823727 0.500000
vt 0.823727 0.750000
vt 0.176273 0.551273
vt 0.616700 0.301273
vt 0.616701 0.948727
vt 0.823727 0.748215
vt 0.134229 0.738273
vt 0.134229 0.750000
vt 0.128901 0.750000
vt 0.125000 0.737797
vt 0.491303 0.990771
vt 0.496019 1.000000
vt 0.430446 1.000000
vt 0.375000 0.990771
vt 0.492527 0.011879
vt 0.375000 0.012202
vt 0.375000 0.005591
vt 0.496019 0.000000
vt 0.508697 0.990771
vt 0.625000 0.990771
vt 0.625000 0.996099
vt 0.512337 1.000000
vt 0.865771 0.738123
vt 0.875000 0.738495
vt 0.875000 0.745554
vt 0.865771 0.750000
vt 0.507498 0.011885
vt 0.512337 0.000000
vt 0.581462 0.000000
vt 0.625000 0.011505
vt 0.134229 0.511727
vt 0.125000 0.511734
vt 0.125000 0.504967
vt 0.134229 0.500000
vt 0.499608 0.238198
vt 0.500078 0.250000
vt 0.401477 0.251950
vt 0.375000 0.238266
vt 0.500000 0.259229
vt 0.375000 0.259229
vt 0.865771 0.511877
vt 0.865771 0.500000
vt 0.871099 0.500000
vt 0.875000 0.511848
vt 0.500000 0.259229
vt 0.500307 0.250000
vt 0.598787 0.247513
vt 0.625000 0.259229
vt 0.500391 0.238198
vt 0.625000 0.238152
vt 0.365771 0.738273
vt 0.375000 0.737797
vt 0.393766 0.749441
vt 0.370385 0.754615
vt 0.492527 0.738121
vt 0.496019 0.750000
vt 0.491303 0.759229
vt 0.634229 0.738123
vt 0.629614 0.754614
vt 0.611696 0.748538
vt 0.625000 0.738495
vt 0.508697 0.759229
vt 0.512337 0.750000
vt 0.507498 0.738115
vt 0.365771 0.511727
vt 0.370385 0.495385
vt 0.391346 0.501656
vt 0.375000 0.511734
vt 0.500000 0.490771
vt 0.500078 0.500000
vt 0.499608 0.511802
vt 0.634229 0.511877
vt 0.625000 0.511848
vt 0.607556 0.500359
vt 0.629615 0.495385
vt 0.500391 0.511802
vt 0.500307 0.500000
vt 0.500000 0.490771
vt 0.125000 0.737798
vt 0.125000 0.744409
vt 0.134229 0.750000
vt 0.492526 0.011879
vt 0.496019 0.000000
vt 0.430446 0.000000
vt 0.375000 0.012202
vt 0.491303 0.990771
vt 0.375000 0.990771
vt 0.375000 0.996099
vt 0.496019 1.000000
vt 0.508697 0.990771
vt 0.512338 1.000000
vt 0.581462 1.000000
vt 0.625000 0.990771
vt 0.507498 0.011885
vt 0.625000 0.011505
vt 0.625000 0.004446
vt 0.512338 0.000000
vt 0.865771 0.738123
vt 0.871099 0.750000
vt 0.134229 0.500000
vt 0.128901 0.500000
vt 0.125000 0.511734
vt 0.500000 0.259229
vt 0.500078 0.250000
vt 0.401467 0.247516
vt 0.375000 0.259229
vt 0.499607 0.238198
vt 0.375000 0.238266
vt 0.865771 0.511877
vt 0.875000 0.511848
vt 0.875000 0.504977
vt 0.500391 0.238198
vt 0.500307 0.250000
vt 0.598827 0.251952
vt 0.625000 0.238152
vt 0.500000 0.259229
vt 0.365771 0.738273
vt 0.370386 0.754615
vt 0.392050 0.748108
vt 0.375000 0.737797
vt 0.491303 0.759229
vt 0.496019 0.750000
vt 0.492526 0.738121
vt 0.634229 0.738123
vt 0.625000 0.738495
vt 0.610688 0.749817
vt 0.629615 0.754614
vt 0.507498 0.738115
vt 0.512338 0.750000
vt 0.508697 0.759229
vt 0.365771 0.511727
vt 0.375000 0.511734
vt 0.392652 0.500355
vt 0.370385 0.495385
vt 0.499607 0.511802
vt 0.500078 0.500000
vt 0.500000 0.490771
vt 0.634229 0.511877
vt 0.608830 0.501657
vt 0.500000 0.490771
vt 0.500307 0.500000
vt 0.500391 0.511802
vt 0.557696 0.712062
vt 0.543696 0.712062
vt 0.543696 0.638758
vt 0.541363 0.634686
vt 0.541363 0.610251
vt 0.543696 0.606179
vt 0.543696 0.532875
vt 0.557696 0.532875
vt 0.557696 0.606179
vt 0.560030 0.610251
vt 0.602031 0.610251
vt 0.604364 0.606179
vt 0.604364 0.532875
vt 0.602031 0.528803
vt 0.602031 0.716135
vt 0.604364 0.712062
vt 0.604364 0.638758
vt 0.602031 0.634686
vt 0.560030 0.634686
vt 0.557696 0.638758
vt 0.560030 0.716135
vt 0.560030 0.528803
vt 0.541363 0.528803
vt 0.499362 0.528803
vt 0.497028 0.532875
vt 0.497028 0.606179
vt 0.499362 0.610251
vt 0.499362 0.634686
vt 0.497028 0.638758
vt 0.497028 0.712062
vt 0.499362 0.716134
vt 0.541363 0.716135
vt 0.137500 0.737500
vt 0.125000 0.737500
vt 0.137500 0.750000
vt 0.612500 0.000000
vt 0.612500 0.012500
vt 0.625000 0.012500
vt 0.137500 0.512500
vt 0.137500 0.500000
vt 0.125000 0.512500
vt 0.625000 0.249791
vt 0.612500 0.237500
vt 0.612500 0.262471
vt 0.137500 0.737500
vt 0.125000 0.737500
vt 0.612500 0.012500
vt 0.625000 0.249791
vt 0.612500 0.237500
vt 0.612500 0.262471
vt 0.137500 0.512500
vt 0.125000 0.512500
vt 0.612500 0.237500
vt 0.612500 0.262471
vt 0.137500 0.737500
vt 0.612500 0.012500
vt 0.625000 0.012500
vt 0.612500 0.237500
vt 0.387500 0.000000
vt 0.387500 0.012500
vt 0.387500 0.237500
vt 0.387500 0.262500
vt 0.141266 0.512500
vt 0.141655 0.499805
vt 0.612500 0.266237
vt 0.625195 0.254158
vt 0.141655 0.750194
vt 0.141266 0.737500
vt 0.612500 0.987500
vt 0.625000 0.987500
vt 0.625195 0.983345
vt 0.612500 0.983734
vt 0.387500 0.012500
vt 0.387500 0.237500
vt 0.387500 0.262500
vt 0.612500 0.266237
vt 0.625194 0.254158
vt 0.141266 0.737500
vt 0.612500 0.983734
vt 0.387500 0.012500
vt 0.387500 0.237500
vt 0.387500 0.262500
vt 0.141266 0.512500
vt 0.612500 0.266237
vt 0.141655 0.750194
vt 0.612500 0.987500
vt 0.612500 0.983734
vt 0.387500 0.237500
vt 0.612500 0.266237
vt 0.141266 0.737500
vt 0.612500 0.983734
vt 0.387500 0.987500
vt 0.387471 0.983720
vt 0.862500 0.737500
vt 0.862500 0.512500
vt 0.858720 0.512471
vt 0.858720 0.737529
vt 0.387471 0.266280
vt 0.862500 0.512500
vt 0.858720 0.512471
vt 0.387471 0.266280
vt 0.387471 0.983720
vt 0.387500 0.987500
vt 0.387471 0.266280
vt 0.137500 0.737500
vt 0.362500 0.737500
vt 0.387471 0.737500
vt 0.385749 0.761624
vt 0.636624 0.739251
vt 0.612500 0.762500
vt 0.612500 0.737529
vt 0.362500 0.512500
vt 0.385749 0.488376
vt 0.387471 0.512500
vt 0.636624 0.510749
vt 0.612500 0.512471
vt 0.612500 0.487500
s 0
usemtl Material
f 21/1/1 22/2/1 7/3/1 5/4/1
f 5/4/2 7/3/2 12/5/2 11/6/2
f 36/7/3 10/8/3 9/9/3 23/10/3 24/11/3 38/12/3 37/13/3 35/14/3
f 9/9/4 10/8/4 3/15/4 1/16/4
f 21/17/5 23/10/5 9/9/5 1/18/5
f 48/19/3 39/20/3 41/21/3 42/21/3 12/5/3 18/5/3 27/11/3 24/11/3 40/22/3 43/22/3 44/22/3 45/23/3 47/21/3 46/24/3
f 44/22/3 43/22/3 39/20/3 48/19/3
f 27/11/6 26/25/6 14/26/6 19/8/6
f 22/2/1 3/27/1 14/27/1 26/2/1
f 3/15/4 10/8/4 19/8/4 14/15/4
f 12/5/2 7/3/2 15/3/2 18/5/2
f 7/3/1 22/2/1 26/2/1 15/3/1
f 18/5/7 15/28/7 26/25/7 27/11/7
f 52/12/3 38/12/3 24/11/3 27/11/3 19/8/3 10/8/3 36/7/3 49/7/3 50/29/3 51/29/3 54/30/3 53/31/3
f 50/29/3 49/7/3 52/12/3 53/31/3
f 5/32/5 11/6/5 23/10/5 21/17/5
f 40/22/3 24/11/3 23/10/3 11/6/3 12/5/3 42/21/3 55/33/3 56/34/3
f 1/35/1 3/27/1 22/2/1 21/1/1
f 54/36/4 8/3/4 6/4/4 53/37/4
f 50/38/2 2/16/2 4/15/2 51/39/2
f 6/32/8 2/18/8 50/40/8 53/41/8
f 4/26/5 8/28/5 54/42/5 51/43/5
f 47/36/4 20/3/4 17/4/4 46/37/4
f 44/38/2 13/16/2 16/15/2 45/39/2
f 17/32/8 13/18/8 44/40/8 48/44/8 46/41/8
f 16/26/5 20/28/5 47/42/5 45/43/5
f 38/45/4 52/36/4 30/3/4 29/4/4 37/37/4
f 35/38/2 25/16/2 28/15/2 49/39/2 36/46/2
f 29/32/8 25/18/8 35/40/8 37/41/8
f 28/26/5 30/28/5 52/42/5 49/43/5
f 42/45/4 41/36/4 34/3/4 33/4/4 55/37/4
f 31/16/2 32/15/2 43/39/2 40/46/2 56/38/2
f 33/32/8 31/18/8 56/40/8 55/41/8
f 32/26/5 34/28/5 41/42/5 39/47/5 43/43/5
usemtl Material.001
f 4/27/3 2/35/3 6/4/3 8/3/3
f 16/27/3 13/35/3 17/4/3 20/3/3
f 25/35/3 29/4/3 30/3/3 28/27/3
f 31/35/3 33/4/3 34/3/3 32/27/3
usemtl Material.004
f 57/48/9 60/49/9 61/50/9 63/51/9
f 58/52/10 62/53/10 61/54/10 60/55/10
f 59/56/11 63/57/11 61/58/11 62/59/11
f 64/60/12 67/61/12 68/62/12 70/63/12
f 65/64/13 69/65/13 68/66/13 67/67/13
f 66/68/14 70/69/14 68/70/14 69/71/14
f 71/72/15 74/73/15 75/74/15 77/75/15
f 72/76/16 76/77/16 75/78/16 74/79/16
f 73/80/17 77/81/17 75/78/17 76/77/17
f 78/82/18 81/83/18 82/84/18 84/85/18
f 79/86/19 83/87/19 82/88/19 81/89/19
f 80/90/20 84/91/20 82/88/20 83/87/20
f 85/92/21 88/93/21 89/94/21 91/95/21
f 86/96/22 90/97/22 89/94/22 88/93/22
f 87/98/23 91/95/23 89/94/23 90/97/23
f 92/99/24 95/100/24 96/101/24 98/102/24
f 93/103/25 97/104/25 96/101/25 95/100/25
f 94/105/26 98/102/26 96/101/26 97/104/26
f 99/106/27 102/107/27 103/108/27 105/109/27
f 100/110/28 104/111/28 103/108/28 102/107/28
f 101/112/29 105/109/29 103/108/29 104/111/29
f 106/113/30 109/114/30 110/115/30 112/116/30
f 107/117/31 111/118/31 110/115/31 109/114/31
f 108/119/32 112/116/32 110/115/32 111/118/32
f 113/48/33 116/120/33 117/121/33 119/122/33
f 114/123/34 118/124/34 117/125/34 116/126/34
f 115/127/35 119/128/35 117/129/35 118/130/35
f 120/131/36 123/132/36 124/133/36 126/134/36
f 121/135/37 125/136/37 124/137/37 123/138/37
f 122/139/38 126/67/38 124/140/38 125/65/38
f 127/72/39 130/141/39 131/142/39 133/143/39
f 128/144/40 132/145/40 131/146/40 130/147/40
f 129/148/41 133/149/41 131/146/41 132/145/41
f 134/150/42 137/151/42 138/152/42 140/83/42
f 135/153/43 139/154/43 138/155/43 137/156/43
f 136/157/44 140/89/44 138/155/44 139/154/44
f 141/158/45 144/159/45 145/160/45 147/161/45
f 142/162/46 146/163/46 145/160/46 144/159/46
f 143/164/47 147/161/47 145/160/47 146/163/47
f 148/165/48 151/166/48 152/167/48 154/168/48
f 149/169/49 153/170/49 152/167/49 151/166/49
f 150/171/50 154/168/50 152/167/50 153/170/50
f 155/172/51 158/173/51 159/174/51 161/175/51
f 156/176/52 160/177/52 159/174/52 158/173/52
f 157/178/53 161/175/53 159/174/53 160/177/53
f 162/179/54 165/116/54 166/180/54 168/114/54
f 163/181/55 167/182/55 166/180/55 165/116/55
f 164/183/56 168/114/56 166/180/56 167/182/56
f 71/72/57 57/48/57 63/51/57 74/73/57
f 74/79/58 63/57/58 59/56/58 72/76/58
f 58/52/59 64/60/59 70/63/59 62/53/59
f 62/59/60 70/69/60 66/68/60 59/56/60
f 65/64/61 78/82/61 84/85/61 69/65/61
f 69/71/62 84/91/62 80/90/62 66/68/62
f 79/86/63 73/80/63 76/77/63 83/87/63
f 83/87/64 76/77/64 72/76/64 80/90/64
f 99/106/65 71/72/65 77/75/65 102/107/65
f 102/107/66 77/81/66 73/80/66 100/110/66
f 78/82/67 106/113/67 112/116/67 81/83/67
f 81/89/68 112/116/68 108/119/68 79/86/68
f 107/117/69 101/112/69 104/111/69 111/118/69
f 111/118/70 104/111/70 100/110/70 108/119/70
f 85/92/71 99/106/71 105/109/71 88/93/71
f 88/93/72 105/109/72 101/112/72 86/96/72
f 106/113/73 92/99/73 98/102/73 109/114/73
f 109/114/74 98/102/74 94/105/74 107/117/74
f 93/103/75 87/98/75 90/97/75 97/104/75
f 97/104/76 90/97/76 86/96/76 94/105/76
f 57/48/77 85/92/77 91/95/77 60/49/77
f 60/55/78 91/95/78 87/98/78 58/52/78
f 92/99/79 65/64/79 67/67/79 95/100/79
f 95/100/80 67/61/80 64/60/80 93/103/80
f 129/148/81 114/123/81 116/126/81 133/149/81
f 133/143/82 116/120/82 113/48/82 127/72/82
f 114/123/83 121/135/83 123/138/83 118/124/83
f 118/130/84 123/132/84 120/131/84 115/127/84
f 121/135/85 135/153/85 137/156/85 125/136/85
f 125/65/86 137/151/86 134/150/86 122/139/86
f 135/153/87 129/148/87 132/145/87 139/154/87
f 139/154/88 132/145/88 128/144/88 136/157/88
f 157/178/89 128/144/89 130/147/89 161/175/89
f 161/175/90 130/141/90 127/72/90 155/172/90
f 136/157/91 163/181/91 165/116/91 140/89/91
f 140/83/92 165/116/92 162/179/92 134/150/92
f 163/181/93 157/178/93 160/177/93 167/182/93
f 167/182/94 160/177/94 156/176/94 164/183/94
f 143/164/95 156/176/95 158/173/95 147/161/95
f 147/161/96 158/173/96 155/172/96 141/158/96
f 164/183/97 149/169/97 151/166/97 168/114/97
f 168/114/98 151/166/98 148/165/98 162/179/98
f 149/169/99 143/164/99 146/163/99 153/170/99
f 153/170/100 146/163/100 142/162/100 150/171/100
f 115/127/101 142/162/101 144/159/101 119/128/101
f 119/122/102 144/159/102 141/158/102 113/48/102
f 150/171/103 120/131/103 126/134/103 154/168/103
f 154/168/104 126/67/104 122/139/104 148/165/104
f 71/72/105 99/106/105 85/92/105 57/48/105
f 59/56/1 66/68/1 80/90/1 72/76/1
f 87/98/106 93/103/106 64/60/106 58/52/106
f 106/113/107 78/82/107 65/64/107 92/99/107
f 73/80/8 79/86/8 108/119/8 100/110/8
f 101/112/3 107/117/3 94/105/3 86/96/3
f 127/72/108 113/48/108 141/158/108 155/172/108
f 114/123/1 129/148/1 135/153/1 121/135/1
f 142/162/109 115/127/109 120/131/109 150/171/109
f 162/179/110 148/165/110 122/139/110 134/150/110
f 128/144/5 157/178/5 163/181/5 136/157/5
f 156/176/3 143/164/3 149/169/3 164/183/3
usemtl Material.002
f 169/35/1 171/27/1 175/3/1 173/4/1
f 173/4/2 175/3/2 183/5/2 181/6/2
f 253/184/3 254/185/3 227/186/3 230/187/3 235/188/3 237/189/3 239/190/3 241/191/3 238/192/3 236/193/3 232/194/3 248/195/3 246/196/3 242/197/3 183/5/3 180/8/3 226/198/3 225/199/3 229/200/3 233/201/3 231/202/3 228/203/3
f 254/185/3 253/184/3 251/204/3 226/198/3 180/8/3 177/9/3 181/6/3 183/5/3 242/197/3 244/205/3 241/191/3 239/190/3 243/206/3 245/207/3 247/208/3 240/209/3 234/210/3 235/188/3 230/187/3 256/211/3 255/212/3 252/213/3 249/214/3 250/215/3
f 177/9/4 180/8/4 171/15/4 169/16/4
f 173/32/5 181/6/5 177/9/5 169/18/5
f 183/5/8 175/28/8 171/26/8 180/8/8
f 170/216/111 174/217/111 172/218/111
f 176/219/112 179/220/112 178/221/112
f 182/222/113 185/223/113 184/224/113
f 186/225/114 188/226/114 187/227/114
f 189/228/111 191/229/111 190/218/111
f 192/219/112 194/230/112 193/221/112
f 195/222/113 197/223/113 196/224/113
f 198/231/114 200/232/114 199/233/114
f 201/216/111 203/217/111 202/218/111
f 204/219/112 206/230/112 205/221/112
f 207/234/113 209/223/113 208/235/113
f 210/225/114 212/236/114 211/237/114
f 213/238/111 215/217/111 214/218/111
f 216/219/112 218/239/112 217/240/112
f 219/222/113 221/223/113 220/224/113
f 222/231/114 224/241/114 223/233/114
f 182/222/115 184/224/115 174/217/115 170/216/115
f 172/242/116 174/243/116 179/220/116 176/219/116
f 178/221/117 179/220/117 188/226/117 186/225/117
f 187/227/118 188/226/118 184/244/118 185/245/118
f 185/223/119 182/222/119 228/246/119 231/247/119
f 186/225/120 187/227/120 233/248/120 229/249/120
f 170/216/121 172/218/121 251/250/121 253/251/121
f 176/252/122 178/253/122 225/254/122 226/255/122
f 195/222/115 196/224/115 191/229/115 189/228/115
f 190/242/116 191/256/116 194/230/116 192/219/116
f 193/221/117 194/230/117 200/232/117 198/231/117
f 199/233/118 200/232/118 196/257/118 197/258/118
f 197/223/119 195/222/119 241/246/119 244/247/119
f 198/231/120 199/233/120 242/259/120 246/260/120
f 189/228/121 190/218/121 236/250/121 238/261/121
f 192/252/122 193/253/122 248/254/122 232/262/122
f 207/234/115 208/235/115 203/217/115 201/216/115
f 202/242/116 203/263/116 206/230/116 204/219/116
f 205/221/117 206/230/117 212/236/117 210/225/117
f 211/237/118 212/236/118 208/264/118 209/265/118
f 209/223/119 207/234/119 255/266/119 256/247/119
f 210/225/120 211/237/120 230/267/120 227/249/120
f 201/216/121 202/218/121 249/268/121 252/251/121
f 204/269/122 205/253/122 254/254/122 250/270/122
f 219/222/115 220/224/115 215/217/115 213/238/115
f 214/242/116 215/263/116 218/239/116 216/219/116
f 217/240/117 218/239/117 224/241/117 222/231/117
f 223/233/118 224/241/118 220/271/118 221/265/118
f 221/223/119 219/222/119 247/246/119 245/247/119
f 222/231/120 223/233/120 243/272/120 239/260/120
f 213/238/121 214/218/121 234/268/121 240/273/121
f 216/269/122 217/253/122 237/254/122 235/274/122
f 182/222/8 170/216/8 253/251/8 228/246/8
f 174/243/3 184/244/3 188/226/3 179/220/3
f 172/275/2 176/252/2 226/255/2 251/276/2
f 178/277/5 186/278/5 229/279/5 225/280/5
f 233/248/4 187/227/4 185/245/4 231/281/4
f 195/222/8 189/228/8 238/261/8 241/246/8
f 191/256/3 196/257/3 200/232/3 194/230/3
f 236/276/2 190/275/2 192/252/2 232/262/2
f 193/277/5 198/282/5 246/283/5 248/280/5
f 242/259/4 199/233/4 197/258/4 244/284/4
f 207/234/8 201/216/8 252/251/8 255/266/8
f 203/263/3 208/264/3 212/236/3 206/230/3
f 249/285/2 202/286/2 204/269/2 250/270/2
f 205/277/5 210/278/5 227/279/5 254/280/5
f 230/267/4 211/237/4 209/265/4 256/287/4
f 219/222/8 213/238/8 240/273/8 247/246/8
f 215/263/3 220/271/3 224/241/3 218/239/3
f 234/285/2 214/286/2 216/269/2 235/274/2
f 217/277/5 222/282/5 239/283/5 237/280/5
f 243/272/4 223/233/4 221/265/4 245/287/4
usemtl Material.003
f 257/288/123 258/218/123 259/217/123
f 260/219/124 261/221/124 262/230/124
f 263/222/125 264/224/125 265/223/125
f 266/225/126 267/227/126 268/226/126
f 269/289/127 270/290/127 271/291/127
f 272/292/128 273/293/128 274/294/128
f 275/295/129 276/296/129 277/297/129
f 278/298/130 279/299/130 280/300/130
f 263/222/131 257/288/131 259/217/131 264/224/131
f 258/242/132 260/219/132 262/230/132 259/243/132
f 261/221/133 266/225/133 268/226/133 262/230/133
f 267/227/134 265/245/134 264/244/134 268/226/134
f 275/295/135 263/222/135 265/223/135 276/296/135
f 266/225/136 278/298/136 280/300/136 267/227/136
f 279/299/137 277/297/137 276/296/137 280/300/137
f 269/289/138 275/295/138 277/297/138 270/290/138
f 278/298/139 272/292/139 274/294/139 279/299/139
f 273/293/140 271/291/140 270/290/140 274/294/140
f 257/288/141 269/289/141 271/291/141 258/218/141
f 272/292/142 261/253/142 260/252/142 273/293/142
f 263/222/5 275/295/5 269/289/5 257/288/5
f 259/243/1 262/230/1 268/226/1 264/244/1
f 271/291/4 273/293/4 260/252/4 258/275/4
f 278/298/8 266/278/8 261/277/8 272/292/8
f 265/245/2 267/227/2 280/300/2 276/296/2
f 277/297/3 279/299/3 274/294/3 270/290/3
